<mxfile host="65bd71144e">
    <diagram id="50UCkDtN5lvyjj5qL8pQ" name="Page-1">
        <mxGraphModel dx="896" dy="530" grid="1" gridSize="10" guides="1" tooltips="1" connect="1" arrows="1" fold="1" page="1" pageScale="1" pageWidth="850" pageHeight="1100" math="0" shadow="0">
            <root>
                <mxCell id="0"/>
                <mxCell id="1" parent="0"/>
                <mxCell id="4" value="" style="edgeStyle=none;html=1;" edge="1" parent="1" source="2" target="3">
                    <mxGeometry relative="1" as="geometry"/>
                </mxCell>
                <mxCell id="2" value="" style="whiteSpace=wrap;html=1;aspect=fixed;" vertex="1" parent="1">
                    <mxGeometry x="280" y="110" width="130" height="130" as="geometry"/>
                </mxCell>
                <mxCell id="3" value="" style="whiteSpace=wrap;html=1;" vertex="1" parent="1">
                    <mxGeometry x="495" y="145" width="120" height="60" as="geometry"/>
                </mxCell>
            </root>
        </mxGraphModel>
    </diagram>
</mxfile>